
nColumns=19
nRows=28
DataType=double
version=3
OpenSimVersion=4.4-2022-10-11-798caa840
endheader
time	ground_force_calcn_r_vx	ground_force_calcn_r_vy	ground_force_calcn_r_vz	ground_force_calcn_r_px	ground_force_calcn_r_py	ground_force_calcn_r_pz	ground_force_calcn_r_mx	ground_force_calcn_r_my	ground_force_calcn_r_mz	ground_force_calcn_l_vx	ground_force_calcn_l_vy	ground_force_calcn_l_vz	ground_force_calcn_l_px	ground_force_calcn_l_py	ground_force_calcn_l_pz	ground_force_calcn_l_mx	ground_force_calcn_l_my	ground_force_calcn_l_mz
3.47	-21.2285	597.968	-28.388	1.36178	0	-0.40813	0.0103808	-0.292408	0.0138818	-3.49978	1.1258	0.009194839999999999	1.53007	0	-0.5558999999999999	1.33912e-07	-4.30767e-08	-3.51823e-10
3.475	-19.2683	601.23	-27.9048	1.36241	0	-0.408421	0.0111645	-0.348365	0.0161686	-3.85127	1.24026	0.0166961	1.55152	0	-0.555909	2.75451e-07	-8.870589999999999e-08	-1.19414e-09
3.48	-17.165	604.8200000000001	-27.6245	1.36301	0	-0.408709	0.0111035	-0.391239	0.0178694	-4.02629	1.29859	0.0251352	1.5731	0	-0.555965	5.32556e-07	-1.71764e-07	-3.32462e-09
3.485	-14.9168	608.716	-27.5116	1.3636	0	-0.408996	0.0103558	-0.422594	0.0190996	-3.97695	1.28521	0.0329553	1.59478	0	-0.556075	9.616700000000001e-07	-3.10778e-07	-7.968950000000001e-09
3.49	-12.5356	612.8819999999999	-27.5334	1.36417	0	-0.409284	0.009089760000000001	-0.44441	0.0199649	-3.67087	1.18929	0.0382423	1.61656	0	-0.5562510000000001	1.60419e-06	-5.19727e-07	-1.67121e-08
3.495	-10.0757	617.289	-27.615	1.36472	0	-0.409569	0.00749002	-0.458878	0.0205283	-3.12051	1.01419	0.0391449	1.63843	0	-0.556503	2.44094e-06	-7.93325e-07	-3.06201e-08
3.5	-7.56414	621.9160000000001	-27.7429	1.36524	0	-0.409849	0.00570122	-0.468748	0.0209103	-2.39069	0.78001	0.034817	1.66036	0	-0.556852	3.337e-06	-1.08876e-06	-4.85986e-08
3.505	-5.02692	626.705	-27.9234	1.36575	0	-0.410117	0.00380824	-0.474772	0.0211539	-1.60629	0.526536	0.0262329	1.68226	0	-0.557328	4.03907e-06	-1.32399e-06	-6.596349999999999e-08
3.51	-2.45359	631.573	-28.2028	1.36622	0	-0.410362	0.0018402	-0.473682	0.0211523	-0.911072	0.3003	0.0160827	1.70387	0	-0.557993	4.27389e-06	-1.40872e-06	-7.54448e-08
3.515	0.167365	636.506	-28.6502	1.36666	0	-0.410578	-0.000120956	-0.46001	0.0207058	-0.412384	0.13681	0.00755337	1.72436	0	-0.5590270000000001	3.90051e-06	-1.29401e-06	-7.14432e-08
3.52	2.84019	641.579	-29.2951	1.36706	0	-0.410762	-0.00189245	-0.427492	0.0195197	-0.133342	0.0445736	0.0023925	1.74004	0	-0.561238	2.93996e-06	-9.8277e-07	-5.27503e-08
3.525	5.68843	646.845	-30.1472	1.36743	0	-0.410917	-0.00326107	-0.370824	0.0172828	-0.0211307	0.00713185	0.000298585	1.71695	0	-0.572787	8.3356e-07	-2.81336e-07	-1.17785e-08
3.53	8.81962	652.158	-31.1782	1.36778	0	-0.411045	-0.00386576	-0.28585	0.0136658	-0.0144368	0.0049155	0.000191782	1.73391	0	-0.574186	6.17856e-07	-2.10371e-07	-8.207769999999999e-09
3.535	12.1049	657.332	-32.3129	1.3681	0	-0.411146	-0.00316725	-0.171991	0.008454669999999999	-0.00852259	0.00293129	9.69366e-05	1.74154	0	-0.582816	4.2457e-07	-1.46028e-07	-4.8291e-09
3.54	15.419	662.429	-33.5037	1.36839	0	-0.411226	-0.00071845	-0.0308661	0.00156112	-0.00547825	0.00190566	4.42301e-05	1.72345	0	-0.597227	2.98639e-07	-1.03884e-07	-2.41114e-09
3.545	18.7749	667.659	-34.6611	1.36867	0	-0.411288	0.00384151	0.136608	-0.00709193	-0.00676493	0.00238	2.87427e-05	1.67604	0	-0.594955	2.00243e-07	-7.044840000000001e-08	-8.50789e-10
3.55	22.16	673.1369999999999	-35.7549	1.36893	0	-0.411331	0.0110828	0.336652	-0.0178819	-0.016584	0.00589995	2.68594e-05	1.65499	0	-0.57785	1.60288e-07	-5.70243e-08	-2.59602e-10
3.555	25.6195	678.91	-36.7456	1.36917	0	-0.411357	0.0214656	0.568831	-0.0307876	-0.0464108	0.016717	-4.28635e-05	1.65712	0	-0.569379	1.26026e-07	-4.53939e-08	1.16393e-10
3.56	29.19	685.1079999999999	-37.5965	1.36942	0	-0.411374	0.0350175	0.8218839999999999	-0.0451023	-0.115989	0.0423628	-0.000476096	1.66769	0	-0.566074	7.9501e-08	-2.90362e-08	3.26325e-10
3.565	32.9766	691.857	-38.3061	1.36966	0	-0.411393	0.051702	1.08472	-0.0600577	-0.242445	0.08992559999999999	-0.00196361	1.6814	0	-0.564631	3.67566e-08	-1.36334e-08	2.97699e-10
3.57	37.0665	699.121	-38.8584	1.36991	0	-0.411425	0.0713728	1.34618	-0.0748233	-0.420258	0.158553	-0.00543166	1.69633	0	-0.56382	1.07718e-08	-4.06395e-09	1.39222e-10
3.575	41.3939	706.873	-39.2417	1.37017	0	-0.411474	0.09372519999999999	1.60052	-0.08885220000000001	-0.611411	0.235022	-0.0113528	1.71171	0	-0.563195	2.14139e-09	-8.23137e-10	3.97618e-11
3.58	45.9159	715.1130000000001	-39.4795	1.37044	0	-0.411541	0.118529	1.84602	-0.101914	-0.761787	0.298879	-0.0190291	1.7272	0	-0.562585	1.84622e-09	-7.24343e-10	4.61179e-11
3.585	50.5469	723.9	-39.5721	1.37073	0	-0.411634	0.145001	2.07661	-0.113519	-0.832714	0.33406	-0.0267292	1.7426	0	-0.56192	2.79597e-09	-1.12166e-09	8.97475e-11
3.59	55.164	733.256	-39.5237	1.37104	0	-0.411758	0.171901	2.28496	-0.123163	-0.819587	0.336794	-0.0326515	1.75779	0	-0.561172	2.82506e-09	-1.16091e-09	1.12548e-10
3.595	59.7284	743.144	-39.366	1.37137	0	-0.411918	0.198432	2.4689	-0.130783	-0.7458320000000001	0.314498	-0.0359029	1.77263	0	-0.56033	2.27498e-09	-9.593010000000001e-10	1.09513e-10
3.6	64.1797	753.481	-39.078	1.37173	0	-0.412117	0.224028	2.63013	-0.136407	-0.644174	0.279234	-0.036671	1.78705	0	-0.559392	1.69523e-09	-7.34839e-10	9.65045e-11
3.605	68.52330000000001	764.131	-38.6834	1.37212	0	-0.41236	0.248124	2.76693	-0.140073	-0.541349	0.241671	-0.0358307	1.80096	0	-0.558361	1.28439e-09	-5.73382e-10	8.50111e-11
